<svg xmlns="http://www.w3.org/2000/svg" xmlns:xlink="http://www.w3.org/1999/xlink" width="181" height="28" viewBox="0 0 181 28"><defs><path id="plvua" d="M185.32 174.24c2.65 0 4.58 1.94 4.8 3.84h-9.8c.2-1.91 2.06-3.84 4.9-3.84h.1zm-8.27 5.29c0 3.88 3.06 7.89 8.2 7.89a8.04 8.04 0 0 0 6.86-3.73c.18-.29.19-.64.02-.94a.96.96 0 0 0-.85-.48h-1.17a.97.97 0 0 0-.8.43 4.62 4.62 0 0 1-4.07 2.06c-2.29 0-4.78-1.48-4.99-4.24h12.1c.52 0 .95-.4.96-.9a7.82 7.82 0 0 0-2.38-5.84 8.24 8.24 0 0 0-5.72-2.2 7.97 7.97 0 0 0-8.16 7.95z"/><path id="plvub" d="M207.37 183.03a5.3 5.3 0 0 1-3.71 1.5 5 5 0 0 1-5.22-5.04v-.02c0-2.87 2.24-5.02 5.22-5.02 1.4 0 2.7.5 3.66 1.42a4.8 4.8 0 0 1 1.5 3.55 4.72 4.72 0 0 1-1.45 3.61zm2.24-16.33a.95.95 0 0 0-.96.93v6.46c-.76-1.08-2.55-2.52-5.5-2.52-4.5 0-7.88 3.4-7.88 7.9 0 4.6 3.34 7.94 7.94 7.94 3.18 0 4.8-1.53 5.55-2.67v1.3c0 .52.44.94.97.94h1.13c.53 0 .96-.42.96-.93v-18.42a.95.95 0 0 0-.96-.93z"/><path id="plvuc" d="M232.94 171.58c-1.6 0-3.07.56-4.12 1.58a5.94 5.94 0 0 0-1.01 1.28c-.2-.35-.55-.94-.87-1.25a5.32 5.32 0 0 0-4.02-1.61 5.53 5.53 0 0 0-4.49 2.19v-.83a.95.95 0 0 0-.96-.93h-1.08a.95.95 0 0 0-.96.93v13.12c0 .5.43.93.96.93h1.25c.53 0 .96-.42.96-.93v-7.26c0-1.22.26-2.2.8-2.95.54-.88 1.58-1.4 2.76-1.37 1.28.02 2.19.48 2.78 1.4.45.73.63 1.56.6 2.86v7.32c0 .5.43.93.96.93h1.27c.53 0 .96-.42.96-.93v-7.32c0-1.28.1-2.05.68-2.91.53-.85 1.6-1.35 2.83-1.35s2.06.37 2.62 1.17c.55.7.81 1.7.81 3.2v7.2c0 .52.43.94.96.94h1.25c.53 0 .96-.42.96-.93v-7.32c0-2.98-.42-4.35-1.72-5.63a5.97 5.97 0 0 0-4.18-1.53"/><path id="plvud" d="M255.24 172.01H254a.95.95 0 0 0-.97.93v7.42c0 2.67-1.43 4.16-4.04 4.18-2.61 0-3.93-1.49-3.93-4.42v-7.18a.95.95 0 0 0-.97-.93h-1.24a.95.95 0 0 0-.96.93v7.83c0 5.75 3.94 6.63 6.29 6.65h.08c2.24 0 4-.85 4.94-2.34v.97c0 .52.43.93.96.93h1.08c.53 0 .96-.41.96-.93v-13.1a.95.95 0 0 0-.96-.94"/><path id="plvue" d="M267.77 171.58c-2.27-.02-4.07.82-5.02 2.34v-.98a.95.95 0 0 0-.96-.93h-1.08a.95.95 0 0 0-.96.93v13.12c0 .5.43.93.96.93h1.24c.54 0 .97-.42.97-.93v-7.4c0-2.67 1.43-4.16 4.04-4.18a3.8 3.8 0 0 1 2.76.91c.76.73 1.14 1.9 1.14 3.49v7.18c0 .5.44.93.97.93h1.27c.53 0 .96-.42.96-.93v-7.83c0-5.73-3.94-6.62-6.29-6.65"/><path id="plvuf" d="M288.8 183.03a5.3 5.3 0 0 1-3.72 1.5 5 5 0 0 1-5.22-5.04v-.02c0-2.87 2.24-5.02 5.22-5.02 1.4 0 2.7.5 3.66 1.42a4.8 4.8 0 0 1 1.5 3.55 4.72 4.72 0 0 1-1.45 3.61zm2.23-16.33a.95.95 0 0 0-.96.93v6.46c-.76-1.08-2.55-2.52-5.5-2.52-4.5 0-7.88 3.4-7.88 7.9 0 4.6 3.34 7.94 7.94 7.94 3.18 0 4.8-1.53 5.55-2.67v1.3c0 .52.44.94.97.94h1.13c.53 0 .96-.42.96-.93v-18.42a.95.95 0 0 0-.96-.93z"/><path id="plvug" d="M302.18 177.94l-.07-.02c-1.57-.42-2.63-.93-2.68-2.02a1.6 1.6 0 0 1 .48-1.2c.38-.37.92-.57 1.58-.57h.06c1.04 0 1.73.45 1.95 1.29.1.4.49.68.93.68h1.18c.3 0 .58-.13.76-.36a.9.9 0 0 0 .17-.8c-.66-2.48-3.03-3.36-5.03-3.36-3.04 0-5.25 1.93-5.25 4.6.03 2.47 2.12 3.4 3.93 3.92 2.74.88 3.77 1.34 3.8 2.7 0 1.16-1.04 2.07-2.36 2.07-.92 0-2.11-.44-2.47-1.67a.96.96 0 0 0-.92-.71H297c-.3 0-.57.13-.75.35-.18.23-.25.52-.18.8.62 2.61 3.23 3.78 5.53 3.78a6 6 0 0 0 4.2-1.6 4.47 4.47 0 0 0 1.36-3.35c-.09-3.22-2.69-3.92-4.98-4.53"/><path id="plvuh" d="M157.5 168.44h-3.82c-.87 0-1.57.55-1.57 1.23v2c0 .14 0 .27.07.4a4.5 4.5 0 0 1 3.41-1.56c1 0 2.61.58 3.42 1.52.03-.1.06-.22.06-.35v-2.01c0-.68-.7-1.23-1.57-1.23"/><path id="plvui" d="M148.09 185.11a9.1 9.1 0 0 1-8.21-5.77c1.56 1.72 4.69 2.62 8.2 2.65 3.52-.03 6.65-.93 8.22-2.65a9.1 9.1 0 0 1-8.21 5.77zm-10.92-12.95c0 .23.08.44.22.62-1.24.12-2.42.28-3.53.5.6-1.46 1.84-3.8 3.32-5.28a5.61 5.61 0 0 1 2.81-1.4c.74-.1 3.41-.5 7.55-.5h1.14c4.14 0 6.81.4 7.55.5a5.61 5.61 0 0 1 2.81 1.4 17.57 17.57 0 0 1 3.32 5.29 45.93 45.93 0 0 0-7.91-.75l-2-.03h-8.39c.04-.11.07-.23.07-.35v-2c0-.68-.7-1.23-1.57-1.23h-3.82c-.87 0-1.57.55-1.57 1.23zm21.25 8.69a2.56 2.56 0 0 1 2.85-2.76 2.57 2.57 0 0 1 2.33 2.24 2.56 2.56 0 0 1-2.86 2.76 2.57 2.57 0 0 1-2.32-2.24zm-25.8 0a2.56 2.56 0 0 1 2.85-2.76 2.57 2.57 0 0 1 2.33 2.24 2.56 2.56 0 0 1-2.86 2.76 2.57 2.57 0 0 1-2.32-2.24zm36.52-9.02a1.09 1.09 0 0 0-1.14-1.02l-2.42.06c-.55.02-.98.42-1.05.93l-.07.35-.28-.52a25 25 0 0 0-3.69-5.23s-1.19-1.41-3.58-1.88h-.01c-2.08-.43-5.47-.54-8.79-.52-3.32-.02-6.7.1-8.79.52a6.55 6.55 0 0 0-3.59 1.88 25 25 0 0 0-3.69 5.23l-.3.58a2.84 2.84 0 0 1-.1-.4c-.07-.52-.5-.92-1.05-.94l-2.42-.06c-.6-.02-1.12.44-1.14 1.02l-.03 1.14c-.02.59.45 1.09 1.06 1.1l2.57.3.03-.06-.05.12a6.2 6.2 0 0 0-1.52 2.93c-.28.92-.43 2.09-.43 3.59 0 2.14.6 5.07.75 6.5v2.12c0 1.06.89 1.92 1.98 1.92h2.7c1.09 0 1.98-.86 1.98-1.92v-1.58c2.82-.25 7.42-.34 12.04-.34 4.63 0 9.23.09 12.05.34v1.58c0 1.06.88 1.92 1.98 1.92h2.7c1.09 0 1.98-.86 1.98-1.92v-2.12c.14-1.43.75-4.36.75-6.5 0-3.33-1.28-5.67-1.96-6.52l-.03-.07 2.53-.29c.6-.01 1.08-.51 1.06-1.1z"/></defs><g><g transform="translate(-127 -164)"><use fill="#555" xlink:href="#plvua"/></g><g transform="translate(-127 -164)"><use fill="#555" xlink:href="#plvub"/></g><g transform="translate(-127 -164)"><use fill="#555" xlink:href="#plvuc"/></g><g transform="translate(-127 -164)"><use fill="#555" xlink:href="#plvud"/></g><g transform="translate(-127 -164)"><use fill="#555" xlink:href="#plvue"/></g><g transform="translate(-127 -164)"><use fill="#555" xlink:href="#plvuf"/></g><g transform="translate(-127 -164)"><use fill="#555" xlink:href="#plvug"/></g><g transform="translate(-127 -164)"><use fill="#007ee5" xlink:href="#plvuh"/></g><g transform="translate(-127 -164)"><use fill="#007ee5" xlink:href="#plvui"/></g></g></svg>